<svg xmlns="http://www.w3.org/2000/svg" xmlns:xlink="http://www.w3.org/1999/xlink" width="500" zoomAndPan="magnify" viewBox="0 0 375 374.999991" height="500" preserveAspectRatio="xMidYMid meet" version="1.2"><defs><clipPath id="d152d6daa8"><path d="M 187.5 0 C 83.945312 0 0 83.945312 0 187.5 C 0 291.054688 83.945312 375 187.5 375 C 291.054688 375 375 291.054688 375 187.5 C 375 83.945312 291.054688 0 187.5 0 Z M 187.5 0 "/></clipPath><clipPath id="1d23fbb725"><path d="M 37.5 89.4375 L 336 89.4375 L 336 285 L 37.5 285 Z M 37.5 89.4375 "/></clipPath></defs><g id="61d943a74d"><g clip-rule="nonzero" clip-path="url(#d152d6daa8)"><rect x="0" width="375" y="0" height="374.999991" style="fill:#000000;fill-opacity:1;stroke:none;"/></g><g clip-rule="nonzero" clip-path="url(#1d23fbb725)"><path style=" stroke:none;fill-rule:evenodd;fill:#ffffff;fill-opacity:1;" d="M 118.511719 187.992188 C 131.324219 205.238281 144.875 222.734375 158.671875 240.71875 C 162.121094 245.15625 166.3125 250.082031 171.730469 255.257812 C 180.355469 263.878906 189.472656 269.546875 199.328125 272.503906 C 208.441406 275.214844 218.050781 275.953125 228.152344 275.460938 C 248.113281 273.980469 265.605469 267.082031 281.375 254.515625 C 302.808594 237.269531 317.839844 210.90625 318.085938 183.066406 C 318.332031 164.339844 314.144531 146.847656 305.519531 131.078125 C 294.925781 111.859375 279.894531 98.554688 259.9375 90.667969 C 257.71875 89.929688 257.71875 89.4375 259.9375 89.683594 C 275.460938 90.914062 289.257812 96.828125 301.332031 107.425781 C 315.128906 119.496094 324.984375 134.527344 331.144531 152.511719 C 336.8125 169.511719 337.304688 186.515625 332.621094 203.761719 C 321.042969 245.894531 282.359375 276.9375 239.488281 283.097656 C 221.5 285.5625 203.761719 284.085938 185.773438 278.417969 C 171.730469 274.230469 159.90625 266.835938 150.050781 256.488281 C 147.585938 253.777344 143.890625 249.097656 138.960938 242.445312 C 127.628906 226.675781 115.800781 210.660156 103.726562 194.398438 C 102.003906 191.933594 99.785156 188.976562 102.003906 186.761719 C 102.496094 186.515625 103.480469 186.023438 105.207031 185.773438 C 111.121094 184.296875 115.800781 180.847656 119.25 175.671875 C 125.164062 166.3125 126.394531 155.714844 125.65625 144.875 C 125.164062 134.773438 122.207031 125.164062 115.554688 118.019531 C 110.378906 112.105469 103.726562 108.902344 95.84375 107.917969 C 89.191406 106.929688 82.539062 107.175781 76.132812 108.65625 C 75.148438 108.902344 74.40625 109.640625 74.40625 110.625 C 74.40625 135.511719 74.160156 158.671875 74.160156 180.355469 C 74.160156 197.109375 74.40625 211.152344 74.652344 222.488281 C 74.652344 225.445312 74.652344 228.152344 74.902344 231.109375 C 75.394531 236.285156 75.640625 244.660156 80.566406 246.632812 C 84.507812 248.359375 90.175781 248.113281 94.117188 248.605469 C 94.367188 248.605469 94.613281 248.851562 94.613281 249.097656 C 94.859375 249.589844 95.105469 250.082031 94.859375 250.328125 C 94.613281 250.574219 94.367188 250.820312 93.871094 251.066406 C 92.640625 251.316406 90.667969 251.316406 88.453125 251.316406 C 76.871094 251.316406 68.25 250.574219 58.144531 251.066406 C 55.191406 251.066406 50.507812 251.316406 43.855469 251.316406 C 43.117188 251.316406 42.625 251.316406 41.882812 250.820312 C 41.636719 250.574219 41.390625 250.328125 41.390625 250.328125 C 40.898438 249.34375 41.144531 248.851562 41.882812 248.605469 C 42.871094 248.359375 44.839844 248.113281 47.550781 247.863281 C 52.726562 247.371094 54.203125 243.675781 54.941406 238.503906 C 55.683594 233.328125 56.175781 228.152344 56.175781 222.980469 C 56.421875 192.675781 56.421875 159.410156 56.421875 123.191406 C 56.175781 118.757812 55.929688 114.816406 55.191406 111.367188 C 54.449219 107.671875 52.234375 105.453125 48.289062 104.46875 C 45.828125 103.972656 42.871094 103.480469 38.929688 103.234375 C 37.941406 103.234375 37.695312 102.742188 38.1875 102.003906 L 38.1875 101.757812 C 38.433594 101.019531 39.175781 100.523438 40.160156 100.523438 C 51 100.523438 62.089844 101.511719 73.421875 101.019531 C 82.785156 100.523438 93.871094 100.277344 104.714844 101.265625 C 111.613281 102.003906 117.28125 103.480469 121.960938 105.699219 C 149.0625 118.757812 151.773438 153.003906 134.28125 174.933594 C 130.089844 180.355469 124.917969 184.542969 118.511719 187.253906 C 118.265625 187.5 118.265625 187.746094 118.511719 187.992188 Z M 184.050781 108.902344 C 182.078125 109.394531 180.847656 110.378906 180.601562 112.351562 C 180.601562 113.089844 180.355469 116.539062 180.355469 122.207031 C 180.355469 149.308594 180.109375 176.414062 180.355469 203.515625 C 180.355469 209.429688 180.355469 215.34375 180.601562 221.5 C 180.601562 229.140625 180.847656 237.515625 180.601562 246.878906 C 180.601562 247.617188 180.355469 247.863281 179.863281 247.371094 C 177.398438 244.910156 174.933594 242.445312 172.714844 239.980469 C 167.050781 233.820312 163.847656 227.167969 162.859375 218.542969 C 162.613281 217.066406 162.367188 212.386719 162.367188 204.992188 C 162.367188 182.820312 162.367188 157.195312 162.367188 128.121094 C 162.613281 123.191406 162.367188 118.511719 161.875 114.324219 C 161.382812 110.625 160.398438 106.929688 156.453125 105.207031 C 153.746094 103.972656 149.800781 103.480469 145.121094 103.480469 C 144.382812 103.480469 143.890625 102.988281 144.136719 102.003906 C 144.136719 102.003906 144.136719 101.757812 144.136719 101.757812 C 144.875 101.019531 145.367188 100.523438 145.859375 100.523438 C 150.050781 100.523438 155.714844 100.523438 162.859375 100.769531 C 169.019531 101.019531 174.6875 101.019531 179.863281 101.019531 C 189.964844 100.523438 200.3125 100.523438 210.90625 100.769531 C 247.125 101.757812 280.140625 119.742188 290.984375 155.960938 C 296.648438 174.6875 294.433594 196.125 285.316406 212.878906 C 268.070312 244.910156 234.3125 256.242188 199.574219 253.039062 C 197.109375 252.792969 197.109375 252.546875 199.574219 252.300781 C 213.125 250.820312 227.660156 247.863281 239.488281 242.445312 C 252.792969 236.285156 262.648438 226.429688 268.808594 212.632812 C 278.417969 191.441406 277.925781 166.3125 268.316406 146.105469 C 261.910156 133.292969 252.300781 123.683594 239.242188 117.527344 C 231.601562 113.828125 223.71875 111.121094 215.589844 109.886719 C 208.441406 108.902344 202.285156 108.164062 197.355469 107.917969 C 192.675781 107.671875 188.238281 107.917969 184.050781 108.902344 Z M 184.050781 108.902344 "/></g></g></svg>