<svg xmlns="http://www.w3.org/2000/svg" xmlns:xlink="http://www.w3.org/1999/xlink" width="2688" zoomAndPan="magnify" viewBox="0 0 2016 1151.999944" height="1536" preserveAspectRatio="xMidYMid meet" version="1.2"><g id="4c1d512eb8"><path style=" stroke:none;fill-rule:nonzero;fill:#ff914d;fill-opacity:1;" d="M 881.460938 569.789062 C 887.632812 566.984375 892.621094 562.964844 896.425781 557.726562 C 900.230469 552.488281 902.132812 546.75 902.132812 540.515625 C 902.132812 528.417969 898.046875 518.925781 889.878906 512.035156 C 881.710938 505.144531 870.425781 501.703125 856.023438 501.703125 C 847.726562 501.703125 840.136719 503.289062 833.246094 506.472656 C 826.355469 509.652344 820.992188 514.0625 817.160156 519.707031 C 813.324219 525.347656 811.40625 531.722656 811.40625 538.835938 L 838.4375 538.835938 C 838.4375 534.285156 840.183594 530.589844 843.675781 527.75 C 847.167969 524.914062 851.5 523.496094 856.679688 523.496094 C 862.414062 523.496094 866.921875 525.023438 870.195312 528.078125 C 873.46875 531.132812 875.101562 535.40625 875.101562 540.894531 C 875.101562 546.570312 873.449219 551.121094 870.148438 554.550781 C 866.839844 557.980469 861.757812 559.691406 854.902344 559.691406 L 840.496094 559.691406 L 840.496094 580.832031 L 854.808594 580.832031 C 869.773438 580.832031 877.253906 587.628906 877.253906 601.21875 C 877.253906 606.832031 875.429688 611.339844 871.785156 614.734375 C 868.136719 618.136719 863.101562 619.832031 856.679688 619.832031 C 851.066406 619.832031 846.34375 618.210938 842.507812 614.96875 C 838.671875 611.726562 836.757812 607.546875 836.757812 602.433594 L 809.726562 602.433594 C 809.726562 614.21875 814.042969 623.699219 822.683594 630.867188 C 831.316406 638.039062 842.429688 641.625 856.027344 641.625 C 870.554688 641.625 882.226562 637.976562 891.054688 630.679688 C 899.875 623.382812 904.289062 613.691406 904.289062 601.59375 C 904.289062 594.109375 902.402344 587.625 898.628906 582.140625 C 894.855469 576.652344 889.136719 572.535156 881.464844 569.792969 Z M 881.460938 569.789062 "/><path style=" stroke:none;fill-rule:nonzero;fill:#ff914d;fill-opacity:1;" d="M 978.078125 548.652344 C 967.042969 548.652344 957.90625 552.335938 950.671875 559.691406 C 952.171875 548.714844 956.644531 540.144531 964.097656 533.96875 C 971.546875 527.796875 981.382812 524.617188 993.605469 524.429688 L 996.222656 524.429688 L 996.222656 502.171875 L 991.734375 502.171875 C 977.953125 502.234375 965.84375 505.367188 955.394531 511.570312 C 944.949219 517.773438 936.9375 526.535156 931.359375 537.851562 C 925.777344 549.167969 922.984375 562.214844 922.984375 576.992188 L 922.984375 586.71875 C 922.984375 603.371094 927.394531 616.683594 936.21875 626.65625 C 945.042969 636.636719 956.625 641.621094 970.96875 641.621094 C 979.820312 641.621094 987.753906 639.625 994.769531 635.636719 C 1001.789062 631.644531 1007.210938 626.066406 1011.046875 618.894531 C 1014.882812 611.726562 1016.796875 603.710938 1016.796875 594.859375 C 1016.796875 581.011719 1013.304688 569.855469 1006.320312 561.371094 C 999.335938 552.890625 989.917969 548.652344 978.074219 548.652344 Z M 984.484375 612.96875 C 980.902344 617.542969 976.207031 619.832031 970.410156 619.832031 C 963.988281 619.832031 959 617.296875 955.445312 612.226562 C 951.894531 607.152344 950.113281 600.105469 950.113281 591.082031 L 950.113281 582.867188 C 951.796875 579.132812 954.414062 576.128906 957.96875 573.859375 C 961.523438 571.585938 965.484375 570.449219 969.847656 570.449219 C 975.957031 570.449219 980.820312 572.722656 984.4375 577.265625 C 988.054688 581.808594 989.863281 587.78125 989.863281 595.1875 C 989.863281 602.46875 988.070312 608.398438 984.484375 612.972656 Z M 984.484375 612.96875 "/><path style=" stroke:none;fill-rule:nonzero;fill:#ff914d;fill-opacity:1;" d="M 1078.34375 501.699219 C 1063.503906 501.699219 1052.136719 506.625 1044.25 516.476562 C 1036.363281 526.328125 1032.417969 540.765625 1032.417969 559.78125 L 1032.417969 584.847656 C 1032.605469 603.117188 1036.628906 617.148438 1044.488281 626.9375 C 1052.34375 636.726562 1063.691406 641.621094 1078.53125 641.621094 C 1093.558594 641.621094 1104.96875 636.628906 1112.765625 626.65625 C 1120.558594 616.679688 1124.457031 602.273438 1124.457031 583.441406 L 1124.457031 558.375 C 1124.269531 540.105469 1120.25 526.09375 1112.390625 516.332031 C 1104.535156 506.574219 1093.183594 501.695312 1078.34375 501.695312 Z M 1097.425781 588.277344 C 1097.300781 598.953125 1095.773438 606.878906 1092.84375 612.058594 C 1089.914062 617.238281 1085.140625 619.832031 1078.53125 619.832031 C 1071.859375 619.832031 1067.007812 617.128906 1063.988281 611.734375 C 1060.964844 606.335938 1059.449219 598.078125 1059.449219 586.96875 L 1059.449219 553.828125 C 1059.636719 543.402344 1061.242188 535.742188 1064.269531 530.84375 C 1067.292969 525.941406 1071.984375 523.492188 1078.34375 523.492188 C 1084.894531 523.492188 1089.707031 526.066406 1092.796875 531.214844 C 1095.882812 536.367188 1097.425781 544.589844 1097.425781 555.886719 Z M 1097.425781 588.277344 "/><path style=" stroke:none;fill-rule:nonzero;fill:#ff914d;fill-opacity:1;" d="M 1172.320312 507.625 C 1169.136719 503.675781 1164.542969 501.703125 1158.539062 501.703125 C 1152.53125 501.703125 1147.929688 503.695312 1144.738281 507.683594 C 1141.546875 511.671875 1139.949219 517.515625 1139.949219 525.214844 L 1139.949219 535.359375 C 1140.027344 542.757812 1141.652344 548.433594 1144.832031 552.398438 C 1148.015625 556.359375 1152.605469 558.339844 1158.613281 558.339844 C 1164.699219 558.339844 1169.316406 556.320312 1172.472656 552.28125 C 1175.628906 548.246094 1177.203125 542.414062 1177.203125 534.789062 L 1177.203125 524.644531 C 1177.128906 517.25 1175.5 511.574219 1172.320312 507.625 Z M 1166.261719 536.75 C 1166.210938 541.070312 1165.59375 544.277344 1164.40625 546.375 C 1163.21875 548.46875 1161.289062 549.519531 1158.613281 549.519531 C 1155.914062 549.519531 1153.949219 548.429688 1152.726562 546.242188 C 1151.503906 544.058594 1150.890625 540.714844 1150.890625 536.21875 L 1150.890625 522.804688 C 1150.964844 518.582031 1151.617188 515.484375 1152.839844 513.5 C 1154.066406 511.515625 1155.964844 510.527344 1158.539062 510.527344 C 1161.191406 510.527344 1163.136719 511.570312 1164.386719 513.652344 C 1165.636719 515.738281 1166.261719 519.066406 1166.261719 523.640625 L 1166.261719 536.753906 Z M 1166.261719 536.75 "/><path style=" stroke:none;fill-rule:nonzero;fill:#ff914d;fill-opacity:1;" d="M 1174.347656 293.480469 L 1177.527344 226.835938 L 1118.386719 257.144531 Z M 1174.347656 293.480469 "/><path style=" stroke:none;fill-rule:nonzero;fill:#ff914d;fill-opacity:1;" d="M 1230.964844 506.046875 C 1240.65625 624.132812 1227.253906 746.609375 1177.957031 855.230469 C 1152.863281 908.929688 1117.242188 961.894531 1064.273438 991.757812 C 982.601562 1036.730469 903.171875 997.871094 850.511719 929.292969 C 737.042969 780.320312 723.242188 527.984375 777.246094 353.246094 C 806.011719 260.796875 864.011719 150.1875 966.957031 128.171875 C 1031.886719 115.21875 1093.910156 151.222656 1134.371094 199.605469 C 1147.917969 215.253906 1159.765625 232.132812 1170.460938 249.605469 C 1170.460938 249.605469 1144.375 264.648438 1144.375 264.648438 C 1126.390625 231.816406 1103.246094 200.789062 1073.21875 178.492188 C 1058.378906 167.613281 1042.019531 159.058594 1024.675781 154.222656 C 926.050781 128.609375 852.308594 224.378906 817.199219 305.039062 C 797.390625 349.347656 784.273438 396.511719 775.644531 444.203125 C 749.109375 596.714844 766.414062 793.992188 860.777344 921.378906 C 882.550781 949.871094 909.523438 975.429688 942.851562 989.417969 C 1001.277344 1014.949219 1062.707031 992.105469 1105.351562 948.128906 C 1146.554688 906.617188 1173.675781 852.40625 1192.792969 797.382812 C 1211.734375 741.570312 1222.632812 683.132812 1226.78125 624.367188 C 1229.695312 585.136719 1229.53125 545.660156 1226.511719 506.410156 L 1230.964844 506.042969 Z M 1230.964844 506.046875 "/><path style=" stroke:none;fill-rule:nonzero;fill:#ff914d;fill-opacity:1;" d="M 877.429688 798.5625 L 938.554688 771.816406 L 931.335938 837.875 Z M 877.429688 798.5625 "/><path style=" stroke:none;fill-rule:nonzero;fill:#ff914d;fill-opacity:1;" d="M 929.375 790.71875 C 1044.214844 800.015625 1163.558594 787.3125 1269.28125 739.648438 C 1320.308594 715.859375 1369.671875 683.0625 1397.703125 633.816406 C 1438.410156 560.25 1401.507812 489.972656 1340.351562 442.644531 C 1202.242188 337.027344 972.640625 321.28125 808.09375 362.882812 C 713.324219 387.203125 588.234375 443.070312 565.113281 547.964844 C 553.183594 607.1875 587.257812 663.484375 632.128906 699.757812 C 647.1875 712.21875 663.480469 723.210938 680.535156 732.832031 C 680.535156 732.832031 677.320312 738.40625 677.320312 738.40625 C 609.722656 699.429688 543.277344 631.101562 558.328125 546.707031 C 580.320312 437.601562 707.371094 377.648438 804.9375 350.847656 C 974.359375 305.09375 1209.242188 318.097656 1353.917969 425.039062 C 1451.691406 497.882812 1472.515625 606.621094 1382.65625 696.40625 C 1296.222656 780.277344 1164.449219 814.539062 1047.40625 823.496094 C 1007.230469 826.453125 966.878906 826.269531 926.683594 823.15625 C 926.683594 823.15625 929.375 790.714844 929.375 790.714844 Z M 929.375 790.71875 "/></g></svg>